# xmcd
#
# Track frame offsets: 
#        150
#        12615
#        24277
#        38762
#        49302
#        63017
#        76202
#        89097
#        99672
#        112465
#        125417
#        134582
#        147445
#        157755
#        168570
#        182587
#        194140
#        205315
#        219685
#        230962
#
# Disc length: 3277 seconds
#
# Revision: 0
# Processed by: cddbd v1.5.1PL2 Copyright (c) Steve Scherf et al.
# Submitted via: ExactAudioCopy v0.95b3
#
DISCID=310ccb14
DTITLE=Frankie Laine - The very best of Frankie Laine
DYEAR=1900
DGENRE=Country
TTITLE0=High Noon
TTITLE1=Mule Train
TTITLE2=Jealousy
TTITLE3=Sixteen Tons
TTITLE4=Cool Water
TTITLE5=Wheel Of Fortune
TTITLE6=Rain Rain Rain
TTITLE7=A Woman In Love
TTITLE8=Granada
TTITLE9=Cry Of The Wild Goose
TTITLE10=Rawhide
TTITLE11=Moonlight Gambler
TTITLE12=I Believe
TTITLE13=Hummingbird
TTITLE14=Don't Fence Me In
TTITLE15=Strange Lady In Town
TTITLE16=Rose Rose I Love You
TTITLE17=There Must Be A Reason
TTITLE18=Answer Me
TTITLE19=Jezebel
EXTD=
EXTT0=
EXTT1=
EXTT2=
EXTT3=
EXTT4=
EXTT5=
EXTT6=
EXTT7=
EXTT8=
EXTT9=
EXTT10=
EXTT11=
EXTT12=
EXTT13=
EXTT14=
EXTT15=
EXTT16=
EXTT17=
EXTT18=
EXTT19=
PLAYORDER=
